<svg width="34" height="34" viewBox="0 0 34 34" fill="none" xmlns="http://www.w3.org/2000/svg">
<path fill-rule="evenodd" clip-rule="evenodd" d="M15.9375 5.3125V2.125H18.0625V5.3125H15.9375ZM21.9237 6.34717L23.5174 3.58672L25.3577 4.64922L23.764 7.40967L21.9237 6.34717ZM17 24.4375C21.1076 24.4375 24.4375 21.1076 24.4375 17C24.4375 12.8924 21.1076 9.5625 17 9.5625C12.8924 9.5625 9.5625 12.8924 9.5625 17C9.5625 21.1076 12.8924 24.4375 17 24.4375ZM17 26.5625C22.2812 26.5625 26.5625 22.2812 26.5625 17C26.5625 11.7188 22.2812 7.4375 17 7.4375C11.7188 7.4375 7.4375 11.7188 7.4375 17C7.4375 22.2812 11.7188 26.5625 17 26.5625ZM28.6875 15.9375H31.875V18.0625H28.6875V15.9375ZM29.3508 8.64235L26.5904 10.2361L27.6529 12.0764L30.4133 10.4827L29.3508 8.64235ZM8.64235 4.64922L10.2361 7.40967L12.0764 6.34717L10.4827 3.58672L8.64235 4.64922ZM6.34711 12.0764L3.58665 10.4827L4.64915 8.64235L7.40961 10.2361L6.34711 12.0764ZM15.9375 28.6875V31.875H18.0625V28.6875H15.9375ZM5.3125 15.9375H2.125V18.0625H5.3125V15.9375ZM3.58659 23.5173L6.34705 21.9236L7.40955 23.7639L4.64909 25.3577L3.58659 23.5173ZM10.2362 26.5905L8.64241 29.351L10.4827 30.4135L12.0765 27.653L10.2362 26.5905ZM23.5173 30.4135L21.9236 27.653L23.7639 26.5905L25.3577 29.351L23.5173 30.4135ZM26.5905 23.7639L29.3509 25.3577L30.4134 23.5173L27.653 21.9236L26.5905 23.7639Z" fill="white"/>
</svg>
