<svg width="125" height="102" viewBox="0 0 125 102" fill="none" xmlns="http://www.w3.org/2000/svg">
<path fill-rule="evenodd" clip-rule="evenodd" d="M45.0459 25.6783C46.4287 25.5604 47.8316 25.5 49.2511 25.5C68.2381 25.5 84.2425 36.3049 89.1446 51.0442C89.537 51.0234 89.9317 51.0099 90.3285 51.0038C90.1672 51.0015 90.0056 51.0003 89.8436 51.0003L89.7127 51.0006L89.7124 51H95.703H95.9382V50.9984C103.38 50.8959 109.375 45.9411 109.375 39.8438C109.375 33.6823 103.254 28.6875 95.703 28.6875C93.1678 28.6875 90.7937 29.2506 88.7584 30.2319C88.7524 28.4509 88.4209 26.7324 87.81 25.1138C84.7662 17.9184 76.3933 12.75 66.541 12.75C56.433 12.75 47.8821 18.1903 45.0459 25.6783ZM106.159 55.1624C112.836 59.2106 117.188 65.8316 117.188 73.3125C117.188 85.6353 105.381 95.6249 90.8176 95.6249C90.4915 95.6249 90.1669 95.6199 89.8438 95.61V95.625H49.8716V95.6212C49.6651 95.6237 49.4583 95.625 49.2511 95.625C26.3652 95.625 7.8125 79.927 7.8125 60.5625C7.8125 44.9257 19.9099 31.6796 36.6176 27.1593C38.9332 15.3767 51.4489 6.375 66.541 6.375C79.4897 6.375 90.5417 13.0013 94.8824 22.3251C95.1546 22.3167 95.4282 22.3125 95.703 22.3125C107.568 22.3125 117.187 30.1615 117.187 39.8438C117.187 46.4288 112.738 52.1659 106.159 55.1624ZM89.8438 89.25H49.8716H49.422V89.2496L49.2511 89.25C30.9445 89.25 15.625 76.626 15.625 60.5625C15.625 44.499 30.9445 31.875 49.2511 31.875C64.7807 31.875 78.1607 40.9595 81.8627 53.5218L81.8745 53.5179C82.3973 55.2608 82.7307 57.0679 82.8548 58.9225C85.2888 57.927 87.9968 57.375 90.8176 57.375C100.802 57.375 109.375 64.2906 109.375 73.3125C109.375 82.2711 100.922 89.1529 91.0271 89.2489V89.25H89.8438Z" fill="white"/>
</svg>
