<svg width="34" height="34" viewBox="0 0 34 34" fill="none" xmlns="http://www.w3.org/2000/svg">
<path fill-rule="evenodd" clip-rule="evenodd" d="M25.5 25.4545C29.086 25.0431 31.875 21.8905 31.875 18.0625C31.875 13.9549 28.6637 10.625 24.7024 10.625C24.5495 10.625 24.3978 10.63 24.2473 10.6397C22.914 5.72662 18.5608 2.125 13.3963 2.125C7.17133 2.125 2.125 7.35767 2.125 13.8125C2.125 19.2758 5.74002 23.8635 10.625 25.1441V22.9257C6.96214 21.706 4.25 18.1324 4.25 13.8125C4.25 8.45799 8.41691 4.25 13.3963 4.25C17.6204 4.25 21.2597 7.27817 22.2667 11.4656L22.2699 11.4643C22.4121 12.0453 22.5027 12.6476 22.5365 13.2658C23.1985 12.934 23.9351 12.75 24.7024 12.75C27.4181 12.75 29.75 15.0552 29.75 18.0625C29.75 20.7704 27.8592 22.9091 25.5 23.308V25.4545ZM14.3459 29.7523C14.6032 29.7523 14.8774 29.5291 14.8772 29.1721C14.8772 28.9765 14.8101 28.6092 14.6025 28.0678C14.5197 27.852 14.423 27.6298 14.3165 27.4059C13.9987 28.0964 13.8141 28.7169 13.8143 29.1721C13.8144 29.5291 14.0887 29.7523 14.3459 29.7523ZM13.0606 25.2421C13.7093 24.1509 14.344 23.375 14.344 23.375C14.344 23.375 14.9492 24.1777 15.5821 25.2639C16.2754 26.4538 17.0019 27.984 17.0022 29.1721C17.0027 30.6661 15.8137 31.8773 14.3466 31.8773C12.8795 31.8773 11.6897 30.6661 11.6893 29.1721C11.6889 27.8683 12.3824 26.3829 13.0606 25.2421ZM21.2522 25.9846C21.2524 26.3416 20.9782 26.5648 20.7209 26.5648C20.4637 26.5648 20.1894 26.3416 20.1893 25.9846C20.1891 25.5294 20.3737 24.9089 20.6915 24.2184C20.798 24.4423 20.8947 24.6645 20.9775 24.8803C21.1851 25.4217 21.2522 25.789 21.2522 25.9846ZM20.719 20.1875C20.719 20.1875 20.0843 20.9634 19.4356 22.0546C18.7574 23.1954 18.0639 24.6808 18.0643 25.9846C18.0647 27.4786 19.2545 28.6898 20.7216 28.6898C22.1887 28.6898 23.3777 27.4786 23.3772 25.9846C23.3769 24.7965 22.6504 23.2663 21.9571 22.0764C21.3242 20.9902 20.719 20.1875 20.719 20.1875Z" fill="white"/>
</svg>
