<svg width="30" height="30" viewBox="0 0 30 30" fill="none" xmlns="http://www.w3.org/2000/svg">
<mask id="mask0_1_26" style="mask-type:alpha" maskUnits="userSpaceOnUse" x="0" y="0" width="30" height="30">
<rect width="30" height="30" fill="#D9D9D9"/>
</mask>
<g mask="url(#mask0_1_26)">
<path d="M24.7265 26.7826L16.5104 18.5784C15.8972 19.0663 15.1806 19.4499 14.3607 19.7292C13.5407 20.0085 12.659 20.1481 11.7156 20.1481C9.3661 20.1481 7.37557 19.3317 5.74399 17.6991C4.11241 16.0663 3.29662 14.0903 3.29662 11.7708C3.29662 9.45138 4.11297 7.4753 5.74568 5.84259C7.37839 4.2099 9.35793 3.39355 11.6843 3.39355C14.0107 3.39355 15.9868 4.2099 17.6125 5.84259C19.2383 7.4753 20.0512 9.45242 20.0512 11.774C20.0512 12.6982 19.9152 13.5647 19.6431 14.3734C19.3711 15.1821 18.9769 15.9259 18.4606 16.6046L26.7034 24.8116L24.7265 26.7826ZM11.6989 17.3936C13.263 17.3936 14.587 16.8463 15.6708 15.7518C16.7547 14.6573 17.2966 13.3303 17.2966 11.7708C17.2966 10.2114 16.7541 8.88436 15.6691 7.78984C14.5841 6.69534 13.2607 6.14809 11.6989 6.14809C10.1255 6.14809 8.79089 6.69534 7.69499 7.78984C6.59912 8.88436 6.05118 10.2114 6.05118 11.7708C6.05118 13.3303 6.59854 14.6573 7.69327 15.7518C8.788 16.8463 10.1232 17.3936 11.6989 17.3936Z" fill="white"/>
</g>
</svg>
