<svg width="34" height="34" viewBox="0 0 34 34" fill="none" xmlns="http://www.w3.org/2000/svg">
<path fill-rule="evenodd" clip-rule="evenodd" d="M14.8691 17.0013L9.43606 20.179L5.12945 18.2021L4.24539 20.1469L7.18441 21.496L5.56779 22.4415L6.61997 24.2877L8.23632 23.3424L7.92016 26.5949L10.0247 26.7916L10.488 22.0254L15.9236 18.8462V25.2374L12.0774 28.0289L13.3256 29.7487L15.9236 27.8631V29.75H18.0486V27.863L20.6467 29.7487L21.8949 28.0289L18.0486 25.2373V18.8609L23.4963 22.0472L23.9597 26.814L26.0642 26.6172L25.748 23.3642L27.3647 24.3098L28.4169 22.4636L26.8004 21.5181L29.739 20.1692L28.8549 18.2245L24.5488 20.2011L19.0778 17.0013L24.5319 13.8113L28.8665 15.801L29.7505 13.8562L26.7835 12.4943L28.419 11.5377L27.3668 9.69151L25.7626 10.6298L26.0758 7.40826L23.9713 7.2115L23.511 11.9467L18.0486 15.1416V8.78427L21.9196 5.97472L20.6714 4.25495L18.0486 6.15856V4.25H15.9236V6.12261L13.3503 4.25495L12.1021 5.97472L15.9236 8.74832V15.1564L10.5047 11.9869L10.0383 7.1894L7.93381 7.38616L8.25301 10.67L6.61784 9.71356L5.56566 11.5598L7.16979 12.498L4.25905 13.8341L5.1431 15.7789L9.42145 13.815L14.8691 17.0013Z" fill="white"/>
</svg>
